# xmcd CD database file
#
# Track frame offsets:
#	150
#	31619
#	40984
#	67681
#	76128
#	104171
#	125766
#	168997
#
# Disc length: 2617 seconds
#
# Revision: 0
# Processed by: cddbd v1.5.2PL0 Copyright (c) Steve Scherf et al.
# Submitted via: CDex 1.70beta2
#
DISCID=5e0a3708
DTITLE=ensemble - Ensemble
DYEAR=2007
DGENRE=Electronica
TTITLE0=Summerstorm
TTITLE1=Still
TTITLE2=One kind two minds
TTITLE3=Unrest
TTITLE4=Disown, delete
TTITLE5=All we leave behind
TTITLE6=Loose
TTITLE7=For good
EXTD=YEAR: 2007
EXTT0=
EXTT1=
EXTT2=
EXTT3=
EXTT4=
EXTT5=
EXTT6=
EXTT7=
PLAYORDER=
